<svg xmlns="http://www.w3.org/2000/svg" xmlns:xlink="http://www.w3.org/1999/xlink" viewBox="0 0 1840 1080"><image width="1840" height="1080" xlink:href="plan-floor.jpg" overflow="visible"/><g class="st0"><path class="st1" d="M869 395l57-14 11 5 91-20 15 7 77-18v-10l131-29.5V307l29-6-1.2 29.3-30.3 7-.5 14.2-129.5 31.3-.5 11-75.7 19-15-8.8-90.8 20.8-11.7-6.3-55.8 12.3z"/></g><g class="st0"><path class="st1" d="M869 430.8l55.8-12.3 11.7 6.3 90.8-20.8 15 8.8 75.7-19 .5-11 129.5-31.3.5-14.2 30.3-7-2 33.9-30.5 7.3-.5 13.5-129.3 31.5v9.3l-74.7 19.2-14.5-7-90.8 23.8-11.7-7.3-55.8 13.3z"/></g><g class="st0"><path class="st1" d="M869 467.8l55.8-13.3 11.7 7.3 90.8-23.8 14.5 7 74.7-19.2v-9.3l129.3-31.5.5-13.5 30.5-7.3-2 31.3-31.5 8.3-.3 13.7-128.5 33v10.3l-74.6 19.7-14.6-6.5-89.8 23.8-11.7-7.3-54.8 14.3z"/></g><g class="st0"><path class="st1" d="M869 504.8l54.8-14.3 11.7 7.3 89.8-23.8 14.6 6.5 74.6-19.7v-10.3l128.5-33 .3-13.7 31.5-8.3-1.5 31.7-32 9.9-.5 13.6-127.3 33.8v11.3l-74.7 20.2-13.5-7-89.8 23.8-11.7-7.3-54.8 14.3z"/></g><g class="st0"><path class="st1" d="M869 539.8l54.8-14.3 11.7 7.3 89.8-23.8 13.5 7 74.7-20.2v-11.3l127.3-33.8.5-13.6 31-8.9-1.8 32.1-31.5 9.5-.5 14.7-127 35v11.3l-74.3 20.6-11.9-7.4-89.8 23.8-11.7-7.3-54.8 13.3z"/></g><g class="st0"><path class="st1" d="M869 573.8l54.8-13.3 11.7 7.3 89.8-23.8 11.9 7.4 74.3-20.6v-11.3l127-35 .5-14.7 31.5-9.5-1.9 31.7-31.1 8.8-1.3 15.1-125.9 35.4-.1 15.2-73.7 19.8-13.2-8.3-88.8 24.8-12-7-53.5 14z"/></g><g class="st0"><path class="st1" d="M869 609.8l53.5-14 12 7 88.8-24.8 13.2 8.3 73.7-19.8.1-15.2 125.9-35.4 1.3-15.1 30.1-8.8-1.8 28.8-30.5 9.7-1 16.8-126.5 38.2-.3 13.2-72.5 21.8-13-9.2-87.5 25.5-11.7-6.5-53.8 15.2z"/></g><g class="st0"><path class="st1" d="M869 645.5l53.8-15.2 11.7 6.5 87.5-25.5 13 9.2 72.5-21.8.3-13.2 126.5-38.2 1-16.8 30.5-9.7-2.5 33.8-30.7 10.3-1.1 13.6-124.7 38-.3 12.2-72.5 21.8-13-8.2-87.5 28.5-11.7-6.5-52.8 14.9z"/></g><g class="st0"><path class="st1" d="M869 679.2l52.8-14.9 11.7 6.5 87.5-28.5 13 8.2 72.5-21.8.3-12.2 124.7-38 1.1-13.6 30.7-10.3-1.8 32.2-31 9.7-.8 13.3-123.9 40.7-.3 13.2-72.5 22.8-13-7.2-84.5 26.5-13.3-10.8-53.2 16.8z"/></g></svg>