<?xml version="1.0" encoding="utf-8"?>
<!-- Generator: Adobe Illustrator 21.1.0, SVG Export Plug-In . SVG Version: 6.00 Build 0)  -->
<svg version="1.1" xmlns="http://www.w3.org/2000/svg" xmlns:xlink="http://www.w3.org/1999/xlink" x="0px" y="0px"
	 viewBox="0 0 1840 1080" style="enable-background:new 0 0 1840 1080;" xml:space="preserve">
<style type="text/css">
	.st0{opacity:0.47;}
	.st1{fill:#FFFFFF;}
</style>
<g id="img">
	<image style="overflow:visible;" width="1840" height="1080" xlink:href="plan-floor.jpg" >
	</image>
</g>
<g id="floor-1" class="st0">
	<polygon class="st1" points="869,395 926,381 937,386 1028,366 1043,373 1120,355 1120,345 1251,315.5 1251,307 1280,301 
		1278.8,330.3 1248.5,337.3 1248,351.5 1118.5,382.8 1118,393.8 1042.3,412.8 1027.3,404 936.5,424.8 924.8,418.5 869,430.8 	"/>
</g>
<g id="floor-2" class="st0">
	<polygon class="st1" points="869,430.8 924.8,418.5 936.5,424.8 1027.3,404 1042.3,412.8 1118,393.8 1118.5,382.8 1248,351.5 
		1248.5,337.3 1278.8,330.3 1276.8,364.2 1246.3,371.5 1245.8,385 1116.5,416.5 1116.5,425.8 1041.8,445 1027.3,438 936.5,461.8 
		924.8,454.5 869,467.8 	"/>
</g>
<g id="floor-3" class="st0">
	<polygon class="st1" points="869,467.8 924.8,454.5 936.5,461.8 1027.3,438 1041.8,445 1116.5,425.8 1116.5,416.5 1245.8,385 
		1246.3,371.5 1276.8,364.2 1274.8,395.5 1243.3,403.8 1243,417.5 1114.5,450.5 1114.5,460.8 1039.9,480.5 1025.3,474 935.5,497.8 
		923.8,490.5 869,504.8 	"/>
</g>
<g id="floor-4" class="st0">
	<polygon class="st1" points="869,504.8 923.8,490.5 935.5,497.8 1025.3,474 1039.9,480.5 1114.5,460.8 1114.5,450.5 1243,417.5 
		1243.3,403.8 1274.8,395.5 1273.3,427.2 1241.3,437.1 1240.8,450.7 1113.5,484.5 1113.5,495.8 1038.8,516 1025.3,509 935.5,532.8 
		923.8,525.5 869,539.8 	"/>
</g>
<g id="floor-5" class="st0">
	<polygon class="st1" points="869,539.8 923.8,525.5 935.5,532.8 1025.3,509 1038.8,516 1113.5,495.8 1113.5,484.5 1240.8,450.7 
		1241.3,437.1 1272.3,428.2 1270.5,460.3 1239,469.8 1238.5,484.5 1111.5,519.5 1111.5,530.8 1037.2,551.4 1025.3,544 935.5,567.8 
		923.8,560.5 869,573.8 	"/>
</g>
<g id="floor-6" class="st0">
	<polygon class="st1" points="869,573.8 923.8,560.5 935.5,567.8 1025.3,544 1037.2,551.4 1111.5,530.8 1111.5,519.5 1238.5,484.5 
		1239,469.8 1270.5,460.3 1268.6,492 1237.5,500.8 1236.2,515.9 1110.3,551.3 1110.2,566.5 1036.5,586.3 1023.3,578 934.5,602.8 
		922.5,595.8 869,609.8 	"/>
</g>
<g id="floor-7" class="st0">
	<polygon class="st1" points="869,609.8 922.5,595.8 934.5,602.8 1023.3,578 1036.5,586.3 1110.2,566.5 1110.3,551.3 1236.2,515.9 
		1237.5,500.8 1267.6,492 1265.8,520.8 1235.3,530.5 1234.3,547.3 1107.8,585.5 1107.5,598.7 1035,620.5 1022,611.3 934.5,636.8 
		922.8,630.3 869,645.5 	"/>
</g>
<g id="floor-8" class="st0">
	<polygon class="st1" points="869,645.5 922.8,630.3 934.5,636.8 1022,611.3 1035,620.5 1107.5,598.7 1107.8,585.5 1234.3,547.3 
		1235.3,530.5 1265.8,520.8 1263.3,554.6 1232.6,564.9 1231.5,578.5 1106.8,616.5 1106.5,628.7 1034,650.5 1021,642.3 933.5,670.8 
		921.8,664.3 869,679.2 	"/>
</g>
<g id="floor-9" class="st0">
	<polygon class="st1" points="869,679.2 921.8,664.3 933.5,670.8 1021,642.3 1034,650.5 1106.5,628.7 1106.8,616.5 1231.5,578.5 
		1232.6,564.9 1263.3,554.6 1261.5,586.8 1230.5,596.5 1229.7,609.8 1105.8,650.5 1105.5,663.7 1033,686.5 1020,679.3 935.5,705.8 
		922.2,695 869,711.8 	"/>
</g>
</svg>
