<svg xmlns="http://www.w3.org/2000/svg" xmlns:xlink="http://www.w3.org/1999/xlink" viewBox="0 0 1780 1080"><image width="1780" height="1080" xlink:href="plan-genplan.jpg" overflow="visible"/><path class="st0" d="M690 135h-48c-1.1 0-2 .9-2 2v41.9c0 .9.5 1.6 1.4 1.9l48.6 16.7 48.6-16.7c.8-.3 1.4-1 1.4-1.9V137c0-1.1-.9-2-2-2h-48z"/><text transform="translate(659 155)" class="st1 st2">ОЧЕРЕДЬ 1</text><text transform="translate(655 172.5)" class="st1 st2">III кв. 2018 г.</text><path class="st0" d="M794 268h-48c-1.1 0-2 .9-2 2v41.9c0 .9.5 1.6 1.4 1.9l48.6 16.7 48.6-16.7c.8-.3 1.4-1 1.4-1.9V270c0-1.1-.9-2-2-2h-48z"/><text transform="translate(763 288)" class="st1 st2">ОЧЕРЕДЬ 1</text><text transform="translate(759 305.5)" class="st1 st2">III кв. 2018 г.</text><path class="st0" d="M1004 351.8h-48c-1.1 0-2 .9-2 2v41.9c0 .9.5 1.6 1.4 1.9l48.6 16.7 48.6-16.7c.8-.3 1.4-1 1.4-1.9v-41.9c0-1.1-.9-2-2-2h-48z"/><text transform="translate(973 371.75)" class="st1 st2">ОЧЕРЕДЬ 1</text><text transform="translate(969 389.25)" class="st1 st2">III кв. 2018 г.</text><path class="st0" d="M1236 358h-48c-1.1 0-2 .9-2 2v41.9c0 .9.5 1.6 1.4 1.9l48.6 16.7 48.6-16.7c.8-.3 1.4-1 1.4-1.9V360c0-1.1-.9-2-2-2h-48z"/><text transform="translate(1205 378)" class="st1 st2">ОЧЕРЕДЬ 1</text><text transform="translate(1201 395.5)" class="st1 st2">III кв. 2018 г.</text><path class="st0" d="M322 364.3h-48c-1.1 0-2 .9-2 2v41.9c0 .9.5 1.6 1.4 1.9l48.6 16.7 48.6-16.7c.8-.3 1.4-1 1.4-1.9v-41.9c0-1.1-.9-2-2-2h-48z"/><text transform="translate(291 384.2)" class="st1 st2">ОЧЕРЕДЬ 1</text><text transform="translate(287 401.7)" class="st1 st2">III кв. 2018 г.</text><path class="st0" d="M556 452.3h-48c-1.1 0-2 .9-2 2v41.9c0 .9.5 1.6 1.4 1.9l48.6 16.7 48.6-16.7c.8-.3 1.4-1 1.4-1.9v-41.9c0-1.1-.9-2-2-2h-48z"/><text transform="translate(525 472.25)" class="st1 st2">ОЧЕРЕДЬ 1</text><text transform="translate(521 489.75)" class="st1 st2">III кв. 2018 г.</text><path class="st0" d="M809 559h-48c-1.1 0-2 .9-2 2v41.9c0 .9.5 1.6 1.4 1.9l48.6 16.7 48.6-16.7c.8-.3 1.4-1 1.4-1.9V561c0-1.1-.9-2-2-2h-48z"/><text transform="translate(778 579)" class="st1 st2">ОЧЕРЕДЬ 1</text><text transform="translate(774 596.5)" class="st1 st2">III кв. 2018 г.</text><path class="st0" d="M990 700.5h-48c-1.1 0-2 .9-2 2v41.9c0 .9.5 1.6 1.4 1.9L990 763l48.6-16.7c.8-.3 1.4-1 1.4-1.9v-41.9c0-1.1-.9-2-2-2h-48z"/><text transform="translate(959 720.5)" class="st1 st2">ОЧЕРЕДЬ 1</text><text transform="translate(955 738)" class="st1 st2">III кв. 2018 г.</text><image width="40" height="40" xlink:href="icons/icon-parking.png" transform="translate(877 177.5)" overflow="visible"/><image width="40" height="40" xlink:href="icons/icon-football.png" transform="translate(1442 410.25)" overflow="visible"/><image width="40" height="40" xlink:href="icons/icon-school.png" transform="translate(512 277)" overflow="visible"/><image width="40" height="40" xlink:href="icons/icon-school.png" transform="translate(1009 599.5)" overflow="visible"/><image width="40" height="40" xlink:href="icons/icon-school.png" transform="translate(1291 512)" overflow="visible"/><image width="40" height="40" xlink:href="icons/icon-360.png" transform="translate(499 698.75)" overflow="visible"/><image width="40" height="40" xlink:href="icons/icon-360.png" transform="translate(1156 596)" overflow="visible"/><image width="40" height="40" xlink:href="icons/icon-360.png" transform="translate(614 301.25)" overflow="visible"/></svg>