<svg xmlns="http://www.w3.org/2000/svg" xmlns:xlink="http://www.w3.org/1999/xlink" viewBox="0 0 568 604"><image width="568" height="604" xlink:href="plan-floor.png" overflow="visible"/><path class="st0" d="M40.8 0H289v145H5V87l16.3-16.2H41z"/><circle class="st1" cx="166.8" cy="75.3" r="25"/><text transform="translate(156.176 81)" class="st2 st3 st4">2K</text><path class="st0" d="M194.3 247h28.4l-.4 49.3H4.5v-58L5 145h189z"/><circle class="st1" cx="102.3" cy="219.5" r="25"/><text transform="translate(93.284 225.25)" class="st2 st3 st4">1K</text><path class="st0" d="M222.3 296.3l.4 151.2H4.5L5 296.3z"/><circle class="st1" cx="102.3" cy="370.8" r="25"/><text transform="translate(91.676 376.5)" class="st2 st3 st4">2K</text><path class="st0" d="M222.4 447.5l.3 153.8H40.8l.5-153.8z"/><circle class="st1" cx="138.6" cy="522" r="25"/><text transform="translate(129.618 527.75)" class="st2 st3 st4">1K</text><path class="st0" d="M565 219.3V534h-77.3V420h-78.8l-.3-46.7h-73.3v-154z"/><circle class="st1" cx="432.6" cy="293.8" r="25"/><text transform="translate(422.026 299.583)" class="st2 st3 st4">3K</text><path class="st0" d="M487.4 419.1l.3 114.9h-52.4l20.7 21 .1 46.3H318l.5-182.2z"/><circle class="st1" cx="400.3" cy="486.6" r="25"/><text transform="translate(391.284 492.333)" class="st2 st3 st4">1K</text></svg>