<?xml version="1.0" encoding="utf-8"?>
<!-- Generator: Adobe Illustrator 21.1.0, SVG Export Plug-In . SVG Version: 6.00 Build 0)  -->
<svg version="1.1" xmlns="http://www.w3.org/2000/svg" xmlns:xlink="http://www.w3.org/1999/xlink" x="0px" y="0px"
	 viewBox="0 0 568 604" style="enable-background:new 0 0 568 604;" xml:space="preserve">
<style type="text/css">
	.st0{opacity:0.42;fill:#71DDE2;}
	.st1{fill:#71DDE2;}
	.st2{fill:#FFFFFF;}
	.st3{font-family:'GothamPro-Bold';}
	.st4{font-size:16px;}
</style>
<g id="img">
	<image style="overflow:visible;" width="568" height="604" xlink:href="plan-floor.png" >
	</image>
</g>
<g id="floor-1">
	<polygon class="st0" points="40.8,0 289,0 289,145 5,145 5,87 21.3,70.8 41,70.8 	"/>
	<g>
		<circle class="st1" cx="166.8" cy="75.3" r="25"/>
		<text transform="matrix(1 0 0 1 156.1763 81)" class="st2 st3 st4">2K</text>
	</g>
</g>
<g id="floor-2">
	<polygon class="st0" points="194.3,247 222.7,247 222.3,296.3 4.5,296.3 4.5,238.3 5,145 194,145 	"/>
	<g>
		<circle class="st1" cx="102.3" cy="219.5" r="25"/>
		<text transform="matrix(1 0 0 1 93.2842 225.25)" class="st2 st3 st4">1K</text>
	</g>
</g>
<g id="floor-3">
	<polygon class="st0" points="222.3,296.3 222.7,447.5 4.5,447.5 5,296.3 	"/>
	<g>
		<circle class="st1" cx="102.3" cy="370.8" r="25"/>
		<text transform="matrix(1 0 0 1 91.6763 376.5)" class="st2 st3 st4">2K</text>
	</g>
</g>
<g id="floor-4">
	<polygon class="st0" points="222.4,447.5 222.7,601.3 40.8,601.3 41.3,447.5 	"/>
	<g>
		<circle class="st1" cx="138.6" cy="522" r="25"/>
		<text transform="matrix(1 0 0 1 129.6175 527.75)" class="st2 st3 st4">1K</text>
	</g>
</g>
<g id="floor-5">
	<polygon class="st0" points="565,219.3 565,534 487.7,534 487.7,420 408.9,420 408.6,373.3 335.3,373.3 335.3,219.3 	"/>
	<g>
		<circle class="st1" cx="432.6" cy="293.8" r="25"/>
		<text transform="matrix(1 0 0 1 422.0257 299.5833)" class="st2 st3 st4">3K</text>
	</g>
</g>
<g id="floor-6">
	<polygon class="st0" points="487.4,419.1 487.7,534 435.3,534 456,555 456.1,601.3 318,601.3 318.5,419.1 	"/>
	<g>
		<circle class="st1" cx="400.3" cy="486.6" r="25"/>
		<text transform="matrix(1 0 0 1 391.2842 492.3333)" class="st2 st3 st4">1K</text>
	</g>
</g>
</svg>
