<?xml version="1.0" encoding="utf-8"?>
<!-- Generator: Adobe Illustrator 21.1.0, SVG Export Plug-In . SVG Version: 6.00 Build 0)  -->
<svg version="1.1" xmlns="http://www.w3.org/2000/svg" xmlns:xlink="http://www.w3.org/1999/xlink" x="0px" y="0px"
	 viewBox="0 0 1840 1080" style="enable-background:new 0 0 1840 1080;" xml:space="preserve">
<style type="text/css">
	.st0{opacity:0.43;}
	.st1{fill:#FFFFFF;}
	.st2{font-family:'GothamPro-Bold';}
	.st3{font-size:11px;}
</style>
<g id="Слой_1">
	<g id="plan-img">
		<image style="overflow:visible;enable-background:new    ;" width="1840" height="1080" xlink:href="plan-corps.jpg" >
		</image>
	</g>
</g>
<g id="corps-1" class="st0">
	<path class="st1" d="M761,116h-48c-1.1,0-2,0.9-2,2v41.9c0,0.9,0.5,1.6,1.4,1.9l48.6,16.7l48.6-16.7c0.8-0.3,1.4-1,1.4-1.9V118
		c0-1.1-0.9-2-2-2H761z"/>
	<text transform="matrix(1 0 0 1 730 136)" class="st2 st3">ОЧЕРЕДЬ 1</text>
	<text transform="matrix(1 0 0 1 726 153.5)" class="st2 st3">III кв. 2018 г.</text>
</g>
<g id="corps-2">
	<path class="st1" d="M868,262.5h-48c-1.1,0-2,0.9-2,2v41.9c0,0.9,0.5,1.6,1.4,1.9L868,325l48.6-16.7c0.8-0.3,1.4-1,1.4-1.9v-41.9
		c0-1.1-0.9-2-2-2H868z"/>
	<text transform="matrix(1 0 0 1 837 282.5)" class="st2 st3">ОЧЕРЕДЬ 1</text>
	<text transform="matrix(1 0 0 1 833 300)" class="st2 st3">III кв. 2018 г.</text>
</g>
<g id="corps-3">
	<path class="st1" d="M1072,355.5h-48c-1.1,0-2,0.9-2,2v41.9c0,0.9,0.5,1.6,1.4,1.9L1072,418l48.6-16.7c0.8-0.3,1.4-1,1.4-1.9v-41.9
		c0-1.1-0.9-2-2-2H1072z"/>
	<text transform="matrix(1 0 0 1 1041 375.5)" class="st2 st3">ОЧЕРЕДЬ 1</text>
	<text transform="matrix(1 0 0 1 1037 393)" class="st2 st3">III кв. 2018 г.</text>
</g>
<g id="corps-4">
	<path class="st1" d="M1296,348.5h-48c-1.1,0-2,0.9-2,2v41.9c0,0.9,0.5,1.6,1.4,1.9L1296,411l48.6-16.7c0.8-0.3,1.4-1,1.4-1.9v-41.9
		c0-1.1-0.9-2-2-2H1296z"/>
	<text transform="matrix(1 0 0 1 1265 368.5)" class="st2 st3">ОЧЕРЕДЬ 1</text>
	<text transform="matrix(1 0 0 1 1261 386)" class="st2 st3">III кв. 2018 г.</text>
</g>
<g id="corps-5">
	<path class="st1" d="M426,324.3h-48c-1.1,0-2,0.9-2,2v41.9c0,0.9,0.5,1.6,1.4,1.9l48.6,16.7l48.6-16.7c0.8-0.3,1.4-1,1.4-1.9v-41.9
		c0-1.1-0.9-2-2-2H426z"/>
	<text transform="matrix(1 0 0 1 395 344.25)" class="st2 st3">ОЧЕРЕДЬ 1</text>
	<text transform="matrix(1 0 0 1 391 361.75)" class="st2 st3">III кв. 2018 г.</text>
</g>
<g id="corps-6">
	<path class="st1" d="M628,418h-48c-1.1,0-2,0.9-2,2v41.9c0,0.9,0.5,1.6,1.4,1.9l48.6,16.7l48.6-16.7c0.8-0.3,1.4-1,1.4-1.9V420
		c0-1.1-0.9-2-2-2H628z"/>
	<text transform="matrix(1 0 0 1 597 438)" class="st2 st3">ОЧЕРЕДЬ 1</text>
	<text transform="matrix(1 0 0 1 593 455.5)" class="st2 st3">III кв. 2018 г.</text>
</g>
<g id="corps-7">
	<path class="st1" d="M874,555.5h-48c-1.1,0-2,0.9-2,2v41.9c0,0.9,0.5,1.6,1.4,1.9L874,618l48.6-16.7c0.8-0.3,1.4-1,1.4-1.9v-41.9
		c0-1.1-0.9-2-2-2H874z"/>
	<text transform="matrix(1 0 0 1 843 575.5)" class="st2 st3">ОЧЕРЕДЬ 1</text>
	<text transform="matrix(1 0 0 1 839 593)" class="st2 st3">III кв. 2018 г.</text>
</g>
<g id="corps-8">
	<path class="st1" d="M1106,580h-48c-1.1,0-2,0.9-2,2v41.9c0,0.9,0.5,1.6,1.4,1.9l48.6,16.7l48.6-16.7c0.8-0.3,1.4-1,1.4-1.9V582
		c0-1.1-0.9-2-2-2H1106z"/>
	<text transform="matrix(1 0 0 1 1075 600)" class="st2 st3">ОЧЕРЕДЬ 1</text>
	<text transform="matrix(1 0 0 1 1071 617.5)" class="st2 st3">III кв. 2018 г.</text>
</g>
<g id="corps-9">
	<path class="st1" d="M1037,718h-48c-1.1,0-2,0.9-2,2v41.9c0,0.9,0.5,1.6,1.4,1.9l48.6,16.7l48.6-16.7c0.8-0.3,1.4-1,1.4-1.9V720
		c0-1.1-0.9-2-2-2H1037z"/>
	<text transform="matrix(1 0 0 1 1006 738)" class="st2 st3">ОЧЕРЕДЬ 1</text>
	<text transform="matrix(1 0 0 1 1002 755.5)" class="st2 st3">III кв. 2018 г.</text>
</g>
</svg>
