<?xml version="1.0" encoding="utf-8"?>
<!-- Generator: Adobe Illustrator 21.1.0, SVG Export Plug-In . SVG Version: 6.00 Build 0)  -->
<svg version="1.1" xmlns="http://www.w3.org/2000/svg" xmlns:xlink="http://www.w3.org/1999/xlink" x="0px" y="0px"
	 viewBox="0 0 1780 1080" style="enable-background:new 0 0 1780 1080;" xml:space="preserve">
<style type="text/css">
	.st0{fill:#FFFFFF;}
	.st1{font-family:'GothamPro-Bold';}
	.st2{font-size:11px;}
</style>
<g id="img">
	<image style="overflow:visible;" width="1780" height="1080" xlink:href="plan-genplan.jpg" >
	</image>
</g>
<g id="corps">
	<g id="corps-2">
		<path class="st0" d="M690,135h-48c-1.1,0-2,0.9-2,2v41.9c0,0.9,0.5,1.6,1.4,1.9l48.6,16.7l48.6-16.7c0.8-0.3,1.4-1,1.4-1.9V137
			c0-1.1-0.9-2-2-2H690z"/>
		<text transform="matrix(1 0 0 1 659 155)" class="st1 st2">ОЧЕРЕДЬ 1</text>
		<text transform="matrix(1 0 0 1 655 172.5)" class="st1 st2">III кв. 2018 г.</text>
	</g>
	<g id="corps-2_1_">
		<path class="st0" d="M794,268h-48c-1.1,0-2,0.9-2,2v41.9c0,0.9,0.5,1.6,1.4,1.9l48.6,16.7l48.6-16.7c0.8-0.3,1.4-1,1.4-1.9V270
			c0-1.1-0.9-2-2-2H794z"/>
		<text transform="matrix(1 0 0 1 763 288)" class="st1 st2">ОЧЕРЕДЬ 1</text>
		<text transform="matrix(1 0 0 1 759 305.5)" class="st1 st2">III кв. 2018 г.</text>
	</g>
	<g id="corps-3">
		<path class="st0" d="M1004,351.8h-48c-1.1,0-2,0.9-2,2v41.9c0,0.9,0.5,1.6,1.4,1.9l48.6,16.7l48.6-16.7c0.8-0.3,1.4-1,1.4-1.9
			v-41.9c0-1.1-0.9-2-2-2H1004z"/>
		<text transform="matrix(1 0 0 1 973 371.75)" class="st1 st2">ОЧЕРЕДЬ 1</text>
		<text transform="matrix(1 0 0 1 969 389.25)" class="st1 st2">III кв. 2018 г.</text>
	</g>
	<g id="corps-4">
		<path class="st0" d="M1236,358h-48c-1.1,0-2,0.9-2,2v41.9c0,0.9,0.5,1.6,1.4,1.9l48.6,16.7l48.6-16.7c0.8-0.3,1.4-1,1.4-1.9V360
			c0-1.1-0.9-2-2-2H1236z"/>
		<text transform="matrix(1 0 0 1 1205 378)" class="st1 st2">ОЧЕРЕДЬ 1</text>
		<text transform="matrix(1 0 0 1 1201 395.5)" class="st1 st2">III кв. 2018 г.</text>
	</g>
	<g id="corps-5">
		<path class="st0" d="M322,364.3h-48c-1.1,0-2,0.9-2,2v41.9c0,0.9,0.5,1.6,1.4,1.9l48.6,16.7l48.6-16.7c0.8-0.3,1.4-1,1.4-1.9
			v-41.9c0-1.1-0.9-2-2-2H322z"/>
		<text transform="matrix(1 0 0 1 291 384.2)" class="st1 st2">ОЧЕРЕДЬ 1</text>
		<text transform="matrix(1 0 0 1 287 401.7)" class="st1 st2">III кв. 2018 г.</text>
	</g>
	<g id="corps-6">
		<path class="st0" d="M556,452.3h-48c-1.1,0-2,0.9-2,2v41.9c0,0.9,0.5,1.6,1.4,1.9l48.6,16.7l48.6-16.7c0.8-0.3,1.4-1,1.4-1.9
			v-41.9c0-1.1-0.9-2-2-2H556z"/>
		<text transform="matrix(1 0 0 1 525 472.25)" class="st1 st2">ОЧЕРЕДЬ 1</text>
		<text transform="matrix(1 0 0 1 521 489.75)" class="st1 st2">III кв. 2018 г.</text>
	</g>
	<g id="corps-7">
		<path class="st0" d="M809,559h-48c-1.1,0-2,0.9-2,2v41.9c0,0.9,0.5,1.6,1.4,1.9l48.6,16.7l48.6-16.7c0.8-0.3,1.4-1,1.4-1.9V561
			c0-1.1-0.9-2-2-2L809,559L809,559z"/>
		<text transform="matrix(1 0 0 1 778 579)" class="st1 st2">ОЧЕРЕДЬ 1</text>
		<text transform="matrix(1 0 0 1 774 596.5)" class="st1 st2">III кв. 2018 г.</text>
	</g>
	<g id="corps-8">
		<path class="st0" d="M990,700.5h-48c-1.1,0-2,0.9-2,2v41.9c0,0.9,0.5,1.6,1.4,1.9L990,763l48.6-16.7c0.8-0.3,1.4-1,1.4-1.9v-41.9
			c0-1.1-0.9-2-2-2H990z"/>
		<text transform="matrix(1 0 0 1 959 720.5)" class="st1 st2">ОЧЕРЕДЬ 1</text>
		<text transform="matrix(1 0 0 1 955 738)" class="st1 st2">III кв. 2018 г.</text>
	</g>
</g>
<g id="icons">
	
		<image style="overflow:visible;" width="40" height="40" xlink:href="icons/icon-parking.png"  transform="matrix(1 0 0 1 877 177.5)">
	</image>
	
		<image style="overflow:visible;" width="40" height="40" xlink:href="icons/icon-football.png"  transform="matrix(1 0 0 1 1442 410.25)">
	</image>
	
		<image style="overflow:visible;" width="40" height="40" xlink:href="icons/icon-school.png"  transform="matrix(1 0 0 1 512 277)">
	</image>
	
		<image style="overflow:visible;" width="40" height="40" xlink:href="icons/icon-school.png"  transform="matrix(1 0 0 1 1009 599.5)">
	</image>
	
		<image style="overflow:visible;" width="40" height="40" xlink:href="icons/icon-school.png"  transform="matrix(1 0 0 1 1291 511.9999)">
	</image>
	
		<image style="overflow:visible;" width="40" height="40" xlink:href="icons/icon-360.png"  transform="matrix(1 0 0 1 499 698.75)">
	</image>
	<image style="overflow:visible;" width="40" height="40" xlink:href="icons/icon-360.png"  transform="matrix(1 0 0 1 1156 596)">
	</image>
	
		<image style="overflow:visible;" width="40" height="40" xlink:href="icons/icon-360.png"  transform="matrix(1 0 0 1 614 301.25)">
	</image>
</g>
</svg>
