<?xml version="1.0" encoding="utf-8"?>
<!-- Generator: Adobe Illustrator 15.0.2, SVG Export Plug-In . SVG Version: 6.00 Build 0)  -->
<!DOCTYPE svg PUBLIC "-//W3C//DTD SVG 1.1//EN" "http://www.w3.org/Graphics/SVG/1.1/DTD/svg11.dtd">
<svg version="1.1" id="Layer_1" xmlns="http://www.w3.org/2000/svg" xmlns:xlink="http://www.w3.org/1999/xlink" x="0px" y="0px"
	 width="612px" height="792px" viewBox="0 0 612 792" enable-background="new 0 0 612 792" xml:space="preserve">
<circle fill="#EDEDED" cx="306" cy="396" r="306"/>
<circle fill="#FFFFFF" cx="306" cy="396" r="252.198"/>
<polygon fill="#FFF200" points="267.956,357.957 286.978,415.022 344.043,434.043 455.797,246.202 "/>
<polygon fill="#F7941D" points="156.202,545.798 344.043,434.043 267.956,357.957 "/>
<g>
	<path fill="#EDEDED" d="M306,214.417c-5.572,0-10.089-4.517-10.089-10.088v-20.176c0-5.571,4.517-10.088,10.089-10.088
		c5.571,0,10.088,4.517,10.088,10.088v20.176C316.088,209.9,311.572,214.417,306,214.417z"/>
	<path fill="#EDEDED" d="M306,617.934c-5.572,0-10.089-4.517-10.089-10.088V587.67c0-5.571,4.517-10.089,10.089-10.089
		c5.571,0,10.088,4.518,10.088,10.089v20.176C316.088,613.418,311.572,617.934,306,617.934z"/>
	<path fill="#EDEDED" d="M517.846,406.088H497.67c-5.571,0-10.088-4.517-10.088-10.088s4.517-10.088,10.088-10.088h20.176
		c5.571,0,10.089,4.517,10.089,10.088C527.934,401.571,523.417,406.088,517.846,406.088z"/>
	<path fill="#EDEDED" d="M114.329,406.088H94.154c-5.571,0-10.089-4.517-10.089-10.088s4.518-10.088,10.089-10.088h20.176
		c5.571,0,10.088,4.517,10.088,10.088S119.901,406.088,114.329,406.088z"/>
</g>
</svg>
