<svg version="1.1" xmlns="http://www.w3.org/2000/svg" xmlns:xlink="http://www.w3.org/1999/xlink"
	 viewBox="0 0 190.9 200" xml:space="preserve">
<style type="text/css">
	.st0{fill:#EA595C;}
	.st1{fill:#9F5D78;}
	.st2{fill:#61C0C8;}
</style>
<g>
	<path class="st0" d="M169,1.9c0-1.1-0.9-1.9-2-1.9h-17c-1.1,0-2,0.9-2,1.9v16.2c0,1.1,0.9,1.9,2,1.9h17c1.1,0,2-0.9,2-1.9V1.9z"/>
	<path class="st1" d="M42,1.9c0-1-0.9-1.9-2-1.9H23c-1.1,0-2,0.9-2,1.9v16.2c0,1.1,0.9,1.9,2,1.9h17c1.1,0,2-0.9,2-1.9V1.9z"/>
	<path class="st2" d="M84.9,38.1c0,1.1,0.7,1.9,1.8,1.9h8.6h8.6c1.1,0,2-0.8,2-1.9V21.7c0-1.1,0.9-1.7,2-1.7H125
		c1.1,0,1.8-1,1.8-2.1V1.5c0-1.1-0.7-1.5-1.8-1.5h-19h-0.1H95.4H84.8h-0.1H65.6c-1.1,0-1.7,0.5-1.7,1.5v16.4c0,1.1,0.6,2.1,1.7,2.1
		h17.1c1.1,0,2.2,0.7,2.2,1.7C84.9,21.7,84.9,38.1,84.9,38.1z"/>
	<g>
		<path d="M97.8,128.6H84.7V142h13.2c5.6,0,8.3-2.2,8.3-6.9C106.2,130.9,103.5,128.6,97.8,128.6z"/>
		<path d="M171.5,60h17c1.1,0,2.4-0.7,2.4-1.7V41.8c0-1.1-1.3-1.9-2.4-1.9h-17.2c-1.1,0-2.3,0.8-2.3,1.9v16.4
			c0,1.1-0.6,1.7-1.8,1.7h-17c-1.1,0-2.2-0.7-2.2-1.7V41.8c0-1.1-0.7-1.9-1.8-1.9H129c-1.1,0-2,0.8-2,1.9v16.4c0,1.1-0.9,1.7-2,1.7
			h-17c-1.1,0-2,1-2,2.1v16c0,1.1-1,1.9-2.1,1.9h-8.5h-8.5c-1.1,0-1.9-0.8-1.9-1.9V62c0-1.1-1-2.1-2.1-2.1h-17
			c-1.1,0-1.9-0.7-1.9-1.7V41.8c0-1.1-1-1.9-2.1-1.9H44.5c-1.1,0-1.6,0.8-1.6,1.9v16.4c0,1.1-1.3,1.7-2.4,1.7h-17
			c-1.1,0-1.6-0.7-1.6-1.7V41.8c0-1.1-1.3-1.9-2.4-1.9H2.2C1.1,40,0,40.8,0,41.8v16.4C0,59.3,1.1,60,2.2,60h17c1.1,0,1.8,1,1.8,2.1
			v16c0,1.1-0.7,1.9-1.8,1.9h-17C1.1,80,0,80.9,0,82v16.5c0,0.9,0.5,2.2,1.1,2.8l92.7,98.1c0.8,0.8,2.2,0.8,3,0l92.9-98.2
			c0.6-0.7,1.1-1.9,1.1-2.8V81.9c0-1.1-1.3-2-2.4-2h-17c-1.1,0-1.6-0.8-1.6-1.9V62C169.9,61,170.4,60,171.5,60z M97.9,152.9H72.7
			V98.4h41.8v10.8H84.7v9.5h14.4c12.3,0,19.2,6.7,19.2,16.9C118.2,146.7,110.5,152.9,97.9,152.9z"/>
	</g>
</g>
</svg>
