<svg viewBox="0 0 76 96">
	<path d="M47.3,52.5c-1.2-0.7-2.5-1.5-3.5-2.4c-2.7-2.5-5-6-6.4-9.9c0.1-0.4,0.2-0.7,0.2-1c0,0,1.5-8.7,1.1-11.6 c-0.1-0.4-0.1-0.5-0.2-0.8l-0.1-0.3c-0.4-1-1.2-2-2.5-1.9l-0.7,0l0,0c-1.4,0-2.6,0.7-2.9,1.8c-0.9,3.4,0,8.5,1.8,15.1l-0.4,1.1 c-1.2,3-2.8,6.1-4.2,8.7l-0.2,0.3c-1.4,2.8-2.7,5.2-3.9,7.2l-1.2,0.6c-0.1,0-2.2,1.2-2.7,1.5c-4.2,2.5-6.9,5.3-7.4,7.6 c-0.1,0.7,0,1.6,0.7,2.1l1.2,0.6c0.5,0.3,1.1,0.4,1.6,0.4c3,0,6.4-3.7,11.2-12c5.5-1.8,11.7-3.3,17.2-4.1c4.2,2.3,9.3,4,12.5,4 c0.6,0,1.1-0.1,1.5-0.2c0.6-0.2,1.1-0.5,1.5-1c0.6-0.9,0.8-2.2,0.6-3.6c-0.1-0.4-0.4-0.9-0.7-1.2c-1-0.9-3.1-1.4-6.3-1.5 C52.7,51.9,50.1,52.1,47.3,52.5z M16.9,69.2c0.5-1.5,2.7-4.4,5.8-7c0.2-0.2,0.7-0.6,1.1-1C20.6,66.5,18.4,68.6,16.9,69.2z M35.7,26 c1,0,1.5,2.4,1.5,4.7c0,2.3-0.5,3.8-1.1,5c-0.5-1.7-0.8-4.5-0.8-6.3C35.3,29.5,35.2,26,35.7,26z M30.1,56.8c0.7-1.2,1.4-2.4,2.1-3.8 c1.7-3.3,2.8-5.8,3.6-7.9c1.6,2.9,3.6,5.4,6,7.4c0.3,0.2,0.6,0.5,0.9,0.7C37.9,54.3,33.7,55.4,30.1,56.8z M58.9,55.1 c1.7,0.4,1.7,1.3,1.4,1.5c-0.3,0.2-1.1,0.3-1.7,0.3c-1.7,0-3.9-0.8-6.9-2.1c1.2-0.1,2.2-0.1,3.2-0.1C56.6,54.6,57.2,54.6,58.9,55.1z M49,0H6C2.7,0,0,2.7,0,6v84c0,3.3,2.7,6,6,6h64c3.3,0,6-2.7,6-6V27L49,0z M52,11.5L64.5,24H55c-1.7,0-3-1.3-3-3V11.5z M70,90H6V6 h40v15c0,5,4,9,9,9h15V90z"/>
</svg>
