<?xml version="1.0" encoding="utf-8"?>
<!-- Generator: Adobe Illustrator 21.1.0, SVG Export Plug-In . SVG Version: 6.00 Build 0)  -->
<svg version="1.1" xmlns="http://www.w3.org/2000/svg" xmlns:xlink="http://www.w3.org/1999/xlink" x="0px" y="0px"
	 viewBox="0 0 23 132" style="enable-background:new 0 0 23 132;" xml:space="preserve">
<style type="text/css">
	.st0{opacity:0.64;}
	.st1{fill:#ede;}
</style>
<g id="Слой_1">
	<image style="overflow:visible;" width="23" height="132" xlink:href="plan-corpus.png" >
	</image>
</g>
<g id="home-1" class="st0">
	<rect x="3" y="1" class="st1" width="17" height="17"/>
</g>
<g id="home-2" class="st0">
	<polygon class="st1" points="4.9,18 18,18 18,24 21.8,24.1 22,46 18,46 18,50 5,50 5,46.1 1,46 1,24 4.9,24 	"/>
</g>
<g id="home-3" class="st0">
	<polygon class="st1" points="5,50 18,50 18,56 21.8,56.1 22,77.9 18,78 18,82 5,82 5,78.1 1,77.9 1,55.9 5,56 	"/>
</g>
<g id="home-4" class="st0">
	<polygon class="st1" points="5,82 18,82 18,85.9 22,85.9 22,107.9 18,107.9 18,114.1 5,114.1 5,108.1 1,108.1 1,86 5,86 	"/>
</g>
<g id="home-5" class="st0">
	<rect x="3" y="114.1" class="st1" width="17" height="17"/>
</g>
</svg>
