<svg xmlns="http://www.w3.org/2000/svg" xmlns:xlink="http://www.w3.org/1999/xlink" viewBox="0 0 1840 1080"><image width="1840" height="1080" xlink:href="plan-home.jpg" overflow="visible"/><path class="st0" d="M969 467h-48c-1.1 0-2 .9-2 2v41.9c0 .9.5 1.6 1.4 1.9l48.6 16.7 48.6-16.7c.8-.3 1.4-1 1.4-1.9V469c0-1.1-.9-2-2-2h-48z"/><text transform="translate(940 487)" class="st1 st2">ОЧЕРЕДЬ</text><text transform="translate(962 514.5)" class="st1 st3">3</text><path d="M816.5 522.8l-1.5 4 28.4 12.6v55l73.1-62.9.5-30.2-18.7-9.5-.5-4-2.7-1.3-.1-5-11.5-5.7h-6.2l-.4 3.7-2.5 1.8-5.6-2.9-6.8 6.4-3.1-2-13.5 11.5-10.4-2.5-10 8.4-.5 9.6-7.7 7.6z" class="st4"/><path d="M756.3 577l5.5-5.2V565l5.5-3.5V558l2-2v-6.2l9.5-9.8 10 4.3 14.5-12.8 4.5 2 7.2-6.7 28.4 12.6v58l-53 47.9-1.6-52.6z" class="st4"/><path d="M674.9 672.5L674 690l-4.1 4.8 3.1 9.7 4 5.5 28.3 14h12.5l8-5.5-.5-12.2 65.1-62-1.6-51.6-2.5-2.2-30-13.5-2 3.3-.4 3.7-2.5 1.8-5.6-2.9-6.8 6.4-3.1-2-9.4 7.1-6.2-2.6-11.3 10.7v6.4l-1.7 1.9v4l-6.5 4.7.7 5.3-5.5 4 1.8 24z" class="st4"/><path d="M991.7 524.1h15.6l8.4 2.7 4.3 4.7 3.3 3.6v4.9l16.4 9v31.7L970.3 650l.4-60-32.4-12 6-6-.3-5.3 12-17.4 16.7-15.2z" class="st5"/><path d="M918.8 586L901 601.8v3.9l-3.7 3.1v2l-6 5.2v1.8l-11.2 10.5 35.9 16 .2 60.3 54.1-54.6.4-60-32.4-12h-4.6l-6 4.5z" class="st6"/><path d="M916.2 704.6l-.2-60.3-35.9-16-4.4 4.4-4.7 3.6-5 4.7-4.3-.3-8 7-10.3 10.3-16.7 25.3-.4 14.4-12.6 16.3-.3 7.1-10.7 9.9 1.1 25-2 1.2.5 9.1 4.6 5 28.2 12 11.5-1 .1-7.6z" class="st4"/><image width="40" height="40" xlink:href="icons/icon-football.png" transform="translate(1501.667 410.333)" overflow="visible"/><image width="40" height="40" xlink:href="icons/icon-parking.png" transform="translate(946.333 172.667)" overflow="visible"/><image width="40" height="40" xlink:href="icons/icon-school.png" transform="translate(573.667 277.333)" overflow="visible"/><image width="40" height="40" xlink:href="icons/icon-school.png" transform="translate(1070.7 594.276)" overflow="visible"/><image width="40" height="40" xlink:href="icons/icon-school.png" transform="translate(1382.7 498)" overflow="visible"/></svg>